<svg width="145" height="40" viewBox="0 0 145 40" fill="none" xmlns="http://www.w3.org/2000/svg">
    <g clip-path="url(#clip0_16322_2313)">
        <path d="M29.9888 0.0090332C20.7464 13.8118 10.7448 27.2205 0.146484 39.9946C9.38888 26.1882 19.3942 12.7868 29.9888 0.0090332Z" fill="#96338F"/>
        <path d="M31.827 7.12891C24.3565 18.557 16.1339 29.5802 7.31104 39.9797C14.7744 28.5479 23.0078 17.5284 31.827 7.12891Z" fill="#96338F"/>
        <path d="M33.5765 14.5046C30.8065 19.0458 27.7114 23.3539 24.5583 27.6215C21.3981 31.809 18.0714 36.1097 14.5568 39.9906C17.2761 35.5113 20.4615 31.0903 23.5749 26.8736C26.7678 22.6351 30.0149 18.4477 33.5765 14.5046Z" fill="#96338F"/>
        <path d="M35.1168 22.4415C33.334 25.6589 31.2262 28.6461 29.0564 31.5936C26.8689 34.4752 24.5546 37.4225 22.0127 39.9977C23.7628 36.8241 25.9286 33.7603 28.073 30.8456C30.2824 27.9277 32.5458 25.0605 35.1168 22.4415Z" fill="#96338F"/>
        <path d="M37.4365 28.2725C35.2236 32.6606 32.2548 36.6438 28.686 39.9996C30.8918 35.6078 33.8712 31.6283 37.4365 28.2725Z" fill="#96338F"/>
        <path d="M40.3005 32.6475C39.194 35.551 37.2847 38.1189 34.8188 39.9902C35.9215 37.0866 37.8416 34.5261 40.3005 32.6475Z" fill="#96338F"/>
        <path d="M116.147 32.462C117.767 32.462 119.087 33.7933 119.087 35.4275C119.087 37.0617 117.767 38.393 116.147 38.393C114.527 38.393 113.207 37.0617 113.207 35.4275C113.207 33.7933 114.527 32.462 116.147 32.462ZM116.147 30.8862C113.659 30.8862 111.645 32.918 111.645 35.4275C111.645 37.937 113.663 39.9687 116.147 39.9687C118.635 39.9687 120.649 37.9334 120.649 35.4275C120.649 32.9216 118.631 30.8862 116.147 30.8862Z" fill="#42248A"/>
        <path d="M94.6905 26.9517H93.103V39.9847H94.6905V26.9517Z" fill="#42248A"/>
        <path d="M108.142 31.0747V32.5884C108.67 31.4832 109.566 30.9287 110.832 30.9287V32.4716H110.445C109.693 32.4716 109.122 32.6687 108.727 33.0662C108.337 33.4639 108.138 34.146 108.138 35.1236V40.0004H106.67V31.0747H108.142Z" fill="#42248A"/>
        <path d="M123.87 31.0747V32.5228C124.471 31.4613 125.433 30.9287 126.756 30.9287C127.732 30.9287 128.549 31.2571 129.208 31.9137C129.862 32.5703 130.191 33.5041 130.191 34.7186V40.0041H128.741V34.963C128.741 34.062 128.524 33.3799 128.097 32.9131C127.667 32.4461 127.074 32.2127 126.318 32.2127C125.563 32.2127 124.966 32.4461 124.528 32.9131C124.095 33.3799 123.878 34.062 123.878 34.963V40.0041H122.409V31.0783H123.87V31.0747Z" fill="#42248A"/>
        <path d="M134.222 28.9184C134.012 29.13 133.755 29.2358 133.455 29.2358C133.151 29.2358 132.898 29.13 132.696 28.9184C132.493 28.7068 132.392 28.4479 132.392 28.145C132.392 27.8386 132.497 27.5798 132.706 27.3682C132.916 27.1566 133.169 27.0508 133.466 27.0508C133.762 27.0508 134.015 27.1566 134.225 27.3682C134.435 27.5798 134.54 27.8386 134.54 28.145C134.536 28.4479 134.431 28.7068 134.222 28.9184Z" fill="#42248A"/>
        <path d="M134.24 30.8862H132.653V39.9689H134.24V30.8862Z" fill="#42248A"/>
        <path d="M79.8153 36.2555C79.4608 37.4884 78.3327 38.393 76.9948 38.393C75.3748 38.393 74.0551 37.0617 74.0551 35.4275C74.0551 33.7969 75.3748 32.462 76.9948 32.462C78.3182 32.462 79.4355 33.3483 79.8081 34.5556H81.4172C81.0122 32.4656 79.1897 30.8862 76.9984 30.8862C74.5144 30.8862 72.4966 32.9214 72.4966 35.4275C72.4966 37.9407 74.5144 39.9687 76.9984 39.9687C79.2041 39.9687 81.041 38.3712 81.4207 36.2555H79.8153Z" fill="#42248A"/>
        <path d="M69.659 36.2555C69.3046 37.4884 68.1764 38.393 66.8385 38.393C65.2186 38.393 63.8988 37.0617 63.8988 35.4275C63.8988 33.7969 65.2186 32.462 66.8385 32.462C68.1619 32.462 69.2793 33.3483 69.6519 34.5556H71.2609C70.8559 32.4656 69.0334 30.8862 66.8422 30.8862C64.3581 30.8862 62.3403 32.9214 62.3403 35.4275C62.3403 37.9407 64.3581 39.9687 66.8422 39.9687C69.0479 39.9687 70.8847 38.3712 71.2644 36.2555H69.659Z" fill="#42248A"/>
        <path d="M144.353 39.9985L141.688 36.4895L140.813 37.6456L142.599 39.9984L144.353 39.9985Z" fill="#42248A"/>
        <path d="M144.355 31.0425L140.963 35.5036L140.08 36.6635L137.567 39.9682H135.825L139.213 35.5036L135.825 31.0425H137.567L140.08 34.3545L142.597 31.0425H144.355Z" fill="#42248A"/>
        <path d="M87.1551 30.8862C85.828 30.8862 84.7504 31.2984 83.9153 32.1264C83.0836 32.9544 82.6677 34.0523 82.6677 35.4167C82.6677 36.7845 83.0762 37.8824 83.9008 38.7177C84.7216 39.5494 85.7882 39.9689 87.0971 39.9689C88.1639 39.9689 89.0498 39.7172 89.755 39.2137C90.46 38.7104 90.9554 38.0758 91.2447 37.3061H89.6138C89.4151 37.7438 89.1004 38.0976 88.6738 38.3639C88.2471 38.6301 87.7227 38.765 87.1008 38.765C86.2799 38.765 85.6039 38.5135 85.0795 38.0027C84.5517 37.4957 84.266 36.8026 84.2225 35.9273H91.4978C91.5412 35.6609 91.5629 35.3728 91.5629 35.0628C91.5629 33.8444 91.1615 32.845 90.3551 32.0608C89.5453 31.2803 88.4785 30.8862 87.1551 30.8862ZM84.2334 34.8767C84.2876 34.0122 84.5841 33.3301 85.1157 32.8342C85.6472 32.338 86.3162 32.0899 87.1224 32.0899C87.9288 32.0899 88.6014 32.3453 89.1439 32.8523C89.6862 33.3593 89.9646 34.0342 89.9756 34.8804H84.2334V34.8767Z" fill="#42248A"/>
        <path d="M100.734 30.8862C99.4068 30.8862 98.3293 31.2984 97.4941 32.1264C96.6624 32.9544 96.2466 34.0523 96.2466 35.4167C96.2466 36.7845 96.6551 37.8824 97.4796 38.7177C98.3005 39.5494 99.367 39.9689 100.676 39.9689C101.743 39.9689 102.629 39.7172 103.334 39.2137C104.039 38.7104 104.534 38.0758 104.824 37.3061H103.193C102.994 37.7438 102.679 38.0976 102.253 38.3639C101.826 38.6301 101.302 38.765 100.68 38.765C99.8588 38.765 99.1828 38.5135 98.6584 38.0027C98.1305 37.4957 97.8449 36.8026 97.8014 35.9273H105.077C105.12 35.6609 105.142 35.3728 105.142 35.0628C105.142 33.8444 104.74 32.845 103.934 32.0608C103.124 31.2803 102.057 30.8862 100.734 30.8862ZM97.8122 34.8767C97.8665 34.0122 98.163 33.3301 98.6945 32.8342C99.226 32.338 99.8951 32.0899 100.701 32.0899C101.508 32.0899 102.18 32.3453 102.723 32.8523C103.265 33.3593 103.543 34.0342 103.554 34.8804H97.8122V34.8767Z" fill="#42248A"/>
        <path d="M55.1153 28.7219L51.2607 38.1438H57.3789L58.0802 39.8472H48.7368L54.0269 26.9126H56.1928L61.6204 39.986H59.7942L55.1153 28.7219Z" fill="#42248A"/>
    </g>
    <defs>
        <clipPath id="clip0_16322_2313">
            <rect width="144.246" height="40" fill="white" transform="translate(0.151123)"/>
        </clipPath>
    </defs>
</svg>
