<?xml version="1.0" standalone="no"?><!DOCTYPE svg PUBLIC "-//W3C//DTD SVG 1.1//EN" "http://www.w3.org/Graphics/SVG/1.1/DTD/svg11.dtd"><svg t="1732586370233" class="icon" viewBox="0 0 1024 1024" version="1.1" xmlns="http://www.w3.org/2000/svg" p-id="9701" xmlns:xlink="http://www.w3.org/1999/xlink" width="200" height="200"><path d="M0 0h1024v1024H0z" fill="#FFFFFF" p-id="9702"></path><path d="M765.44 775.68m-197.12 0a197.12 197.12 0 1 0 394.24 0 197.12 197.12 0 1 0-394.24 0Z" fill="#F26875" p-id="9703"></path><path d="M596.14208 435.77344l-56.88832 58.0608 22.57408 23.05024 60.55424-61.82912a31.83104 31.83104 0 0 1 22.69184-9.23648 31.76448 31.76448 0 0 1 22.51264 9.66144 33.39776 33.39776 0 0 1 0.42496 46.1056l-60.55424 61.83424 72.45312 73.99424a158.31552 158.31552 0 0 1 92.32384-29.63968c89.08288 0 161.27488 73.6768 161.27488 164.56704 0 90.94144-72.2432 164.61824-161.27488 164.61824-89.02656 0-161.21856-73.6768-161.21856-164.61824 0-31.97952 8.92416-61.88544 24.43776-87.17312L436.73088 482.36032a33.41312 33.41312 0 0 1-8.3456-31.872 32.6144 32.6144 0 0 1 22.84544-23.21408 31.81568 31.81568 0 0 1 31.1296 8.4992l11.264 11.52512 56.93952-58.0608a31.83104 31.83104 0 0 1 22.78912-9.63584 31.744 31.744 0 0 1 22.78912 9.63584 33.39776 33.39776 0 0 1 0 46.53568z m79.36 336.56832c0 54.5536 43.29472 98.80064 96.73216 98.80064 53.43744 0 96.73216-44.24704 96.73216-98.80064 0-54.5024-43.29472-98.74944-96.73216-98.74944-53.43744 0-96.73216 44.24704-96.73216 98.80064v-0.0512zM904.71424 87.04c17.79712 0 32.24576 14.71488 32.24576 32.93696v426.38848a32.62464 32.62464 0 0 1-31.55456 31.55456 32.54272 32.54272 0 0 1-32.88064-30.11584v-1.43872l-0.0512-377.04192a16.25088 16.25088 0 0 0-4.66432-11.57632 16.31744 16.31744 0 0 0-11.48416-4.8896H167.67488a16.256 16.256 0 0 0-16.04096 14.55104l-0.1024 1.91488v658.42176c0 8.34048 6.10816 15.40096 14.2336 16.3584l1.90976 0.10752h334.1312a32.55296 32.55296 0 0 1 32.39936 31.65696 32.65536 32.65536 0 0 1-29.96224 34.10432l-2.44224 0.05632h-382.464a32.6656 32.6656 0 0 1-22.96832-9.7792A32.59392 32.59392 0 0 1 87.04 877.09184V119.97696C87.04 101.74976 101.48864 87.04 119.28576 87.04h785.42848zM727.296 259.8912c17.84832 0 32.29696 14.71488 32.29696 32.93696 0 18.16576-14.44864 32.88064-32.24576 32.88064H243.5328a32.6144 32.6144 0 0 1-32.24576-32.93696c0-18.16576 14.44864-32.93184 32.24576-32.93184h483.8144l-0.0512 0.0512z m-371.84 371.84c17.84832 0 32.29696 14.71488 32.29696 32.93696 0 18.16576-14.44864 32.88064-32.24064 32.88064H243.5328a32.64 32.64 0 0 1-32.24576-32.93696c0-18.16576 14.44864-32.93184 32.24576-32.93184h111.9744l-0.0512 0.0512z" fill="#333333" p-id="9704"></path></svg>