<?xml version="1.0" standalone="no"?><!DOCTYPE svg PUBLIC "-//W3C//DTD SVG 1.1//EN" "http://www.w3.org/Graphics/SVG/1.1/DTD/svg11.dtd"><svg t="1692948247149" class="icon" viewBox="0 0 1024 1024" version="1.1" xmlns="http://www.w3.org/2000/svg" p-id="33299" xmlns:xlink="http://www.w3.org/1999/xlink" width="200" height="200"><path d="M511.132295 26.947368c59.521347 0 109.368589 41.423495 122.287158 97.010527h171.762526c50.925137 0 78.740211 59.392 46.144674 98.5088a60.054905 60.054905 0 0 0 0 76.89701c32.595537 39.1168 4.780463 98.503411-46.139285 98.503411H636.674695v45.654231h153.206568c18.631411 0 36.298105 8.272842 48.225011 22.581895l61.817263 74.191495a62.7712 62.7712 0 0 1 0 80.367831l-61.817263 74.186106a62.787368 62.787368 0 0 1-48.225011 22.587284H636.674695v154.074274c0 69.335579-56.206821 125.5424-125.5424 125.5424s-125.5424-56.206821-125.5424-125.5424v-154.074274H217.077221c-50.919747 0-78.734821-59.392-46.133895-98.5088a60.060295 60.060295 0 0 0 0-76.897011c-32.600926-39.1168-4.785853-98.5088 46.133895-98.5088h168.512674v-45.648842H232.383326a62.7712 62.7712 0 0 1-48.22501-22.587284L122.341053 301.099116a62.7712 62.7712 0 0 1 0-80.373221l61.817263-74.180716A62.7712 62.7712 0 0 1 232.383326 123.957895h156.461811C401.763705 68.370863 451.610947 26.947368 511.137684 26.947368z m60.868716 690.48859H450.263579v154.074274c0 33.614147 27.249179 60.868716 60.868716 60.868715s60.868716-27.254568 60.868716-60.868715v-154.074274z m216.990989-209.240926H226.460295a124.755537 124.755537 0 0 1 0 144.567242h562.531705l60.238147-72.283621-60.238147-72.283621z m-216.990989-110.322527H450.263579v45.648842h121.737432v-45.648842zM795.804295 188.631579H233.272589L173.039832 260.9152l60.232757 72.283621h562.531706a124.760926 124.760926 0 0 1 0-144.567242z m-284.672-97.010526c-23.304084 0-43.552337 13.096421-53.781558 32.336842h107.563116c-10.229221-19.240421-30.472084-32.336842-53.786948-32.336842z" fill="#333333" p-id="33300"></path><path d="M265.749558 226.675874m32.336842 0l97.010526 0q32.336842 0 32.336842 32.336842l0 0q0 32.336842-32.336842 32.336842l-97.010526 0q-32.336842 0-32.336842-32.336842l0 0q0-32.336842 32.336842-32.336842Z" fill="#EB6170" p-id="33301"></path><path d="M591.020463 546.239326m32.336842 0l97.010527 0q32.336842 0 32.336842 32.336842l0 0q0 32.336842-32.336842 32.336843l-97.010527 0q-32.336842 0-32.336842-32.336843l0 0q0-32.336842 32.336842-32.336842Z" fill="#EB6170" p-id="33302"></path></svg>