<?xml version="1.0" standalone="no"?><!DOCTYPE svg PUBLIC "-//W3C//DTD SVG 1.1//EN" "http://www.w3.org/Graphics/SVG/1.1/DTD/svg11.dtd"><svg t="1732586359307" class="icon" viewBox="0 0 1024 1024" version="1.1" xmlns="http://www.w3.org/2000/svg" p-id="9001" xmlns:xlink="http://www.w3.org/1999/xlink" width="200" height="200"><path d="M0 0h1024v1024H0z" fill="#FFFFFF" p-id="9002"></path><path d="M849.92 727.04m-138.24 0a138.24 138.24 0 1 0 276.48 0 138.24 138.24 0 1 0-276.48 0Z" fill="#F26875" p-id="9003"></path><path d="M231.8336 189.2352a24.5248 24.5248 0 1 1 45.312-18.7648 24.5248 24.5248 0 0 1-45.312 18.7648z m40.64256 678.93248C135.1424 868.16768 25.6 756.98688 25.6 621.2864c0-137.33376 111.17568-246.87616 246.87616-246.87616 13.36832 0 25.38496 1.35168 38.5024 2.82112l4.00896 0.45056c35.968-94.82752 127.52896-160.22528 232.1664-160.22528 111.17568 0 207.63648 73.5744 238.69952 179.84512 4.90496 17.98144-4.90496 35.968-22.8864 40.87296-17.98656 4.90496-35.968-4.90496-40.87296-22.8864-22.89152-80.11776-94.82752-134.07232-176.57856-134.07232-85.0176 0-158.592 57.22624-178.20672 140.61056l-8.17664 34.3296-34.33472-9.80992c-17.98656-4.90496-35.968-8.17152-53.95456-8.17152-99.73248 0-181.4784 81.74592-181.4784 181.4784s81.74592 181.4784 181.4784 181.4784c17.98656 0 32.70144 14.71488 32.70144 32.70144 0 17.98144-13.0816 34.33472-31.06816 34.33472z m533.3248-329.9328a45.71648 45.71648 0 0 0-10.38336 16.02048h-60.24704l-98.09408-85.02272H525.312a45.74208 45.74208 0 0 0-38.656-21.248 45.77792 45.77792 0 1 0 38.66112 70.2976h93.7728l98.0992 85.0176h88.94464a45.7728 45.7728 0 1 0-0.3328-65.06496z m-397.29152 141.58336a45.78304 45.78304 0 1 1 71.02464-56.89344h76.37504a45.81888 45.81888 0 0 1 38.656-21.25824 45.76768 45.76768 0 0 1 45.77792 45.77792 45.77792 45.77792 0 0 1-84.43392 24.52992H479.53408a45.78816 45.78816 0 0 1-71.02464 7.84384z m391.00928 33.02912h-72.51968l-106.27584 76.84096H525.312a45.75232 45.75232 0 0 0-38.656-21.25312 45.7728 45.7728 0 1 0 38.656 70.30272h110.12608l107.90912-76.84096h56.17152a45.80352 45.80352 0 0 0 71.02464 7.84384 45.77792 45.77792 0 1 0-71.02464-56.89344z m35.38432-246.87616a32.70144 32.70144 0 1 0 65.40288 0 32.70144 32.70144 0 0 0-65.40288 0z m116.31616-113.23904a24.50432 24.50432 0 0 1 5.31456-26.7264 24.53504 24.53504 0 0 1 34.68288 0 24.5504 24.5504 0 0 1 5.31968 26.7264 24.54528 24.54528 0 0 1-32.04608 13.27616 24.5504 24.5504 0 0 1-13.27104-13.27616zM115.52256 302.47424a32.70144 32.70144 0 1 0 65.408 0.00512 32.70144 32.70144 0 0 0-65.408-0.00512z" fill="#333333" p-id="9004"></path></svg>